<?xml version="1.0" encoding="iso-8859-1"?>
<!-- Generator: Adobe Illustrator 19.0.0, SVG Export Plug-In . SVG Version: 6.00 Build 0)  -->
<svg version="1.1" id="Layer_1" xmlns="http://www.w3.org/2000/svg" xmlns:xlink="http://www.w3.org/1999/xlink" x="0px" y="0px"
	 viewBox="0 0 512 512" style="enable-background:new 0 0 512 512;" xml:space="preserve">
<g>
	<g>
		<path d="M496.5,61h-75V15c0-8.291-6.709-15-15-15h-391c-8.291,0-15,6.709-15,15v421c0,41.353,33.647,76,75,76h376
			c33.091,0,60-27.909,60-61V76C511.5,67.709,504.791,61,496.5,61z M60.5,76c0-8.291,6.709-15,15-15h271c8.291,0,15,6.709,15,15v60
			c0,8.291-6.709,15-15,15h-271c-8.291,0-15-6.709-15-15V76z M60.5,196c0-8.291,6.709-15,15-15h120c8.291,0,15,6.709,15,15v120
			c0,8.291-6.709,15-15,15h-120c-8.291,0-15-6.709-15-15V196z M255.5,451h-180c-8.291,0-15-6.709-15-15c0-8.291,6.709-15,15-15h180
			c8.291,0,15,6.709,15,15C270.5,444.291,263.791,451,255.5,451z M346.5,391h-271c-8.291,0-15-6.709-15-15c0-8.291,6.709-15,15-15
			h271c8.291,0,15,6.709,15,15C361.5,384.291,354.791,391,346.5,391z M347.5,331h-91c-8.291,0-15-6.709-15-15
			c0-8.291,6.709-15,15-15h91c8.291,0,15,6.709,15,15S355.791,331,347.5,331z M347.5,271h-91c-8.291,0-15-6.709-15-15
			c0-8.291,6.709-15,15-15h91c8.291,0,15,6.709,15,15S355.791,271,347.5,271z M347.5,211h-91c-8.291,0-15-6.709-15-15
			s6.709-15,15-15h91c8.291,0,15,6.709,15,15S355.791,211,347.5,211z M482.5,451c0,16.538-13.462,31-30,31
			c-16.538,0-30-14.462-30-31V91h60V451z"/>
	</g>
</g>
<g>
	<g>
		<rect x="90.5" y="91" width="241" height="30"/>
	</g>
</g>
<g>
	<g>
		<rect x="90.5" y="211" width="90" height="90"/>
	</g>
</g>
<g>
</g>
<g>
</g>
<g>
</g>
<g>
</g>
<g>
</g>
<g>
</g>
<g>
</g>
<g>
</g>
<g>
</g>
<g>
</g>
<g>
</g>
<g>
</g>
<g>
</g>
<g>
</g>
<g>
</g>
</svg>
